<?xml version="1.0" encoding="UTF-8" standalone="no"?>
<!-- Created with Inkscape (http://www.inkscape.org/) -->

<svg
   xmlns:dc="http://purl.org/dc/elements/1.1/"
   xmlns:cc="http://creativecommons.org/ns#"
   xmlns:rdf="http://www.w3.org/1999/02/22-rdf-syntax-ns#"
   xmlns:svg="http://www.w3.org/2000/svg"
   xmlns="http://www.w3.org/2000/svg"
   xmlns:sodipodi="http://sodipodi.sourceforge.net/DTD/sodipodi-0.dtd"
   xmlns:inkscape="http://www.inkscape.org/namespaces/inkscape"
   width="128"
   height="128"
   viewBox="0 0 33.866667 33.866667"
   version="1.1"
   id="svg8"
   inkscape:export-filename="/home/aviskase/task.png"
   inkscape:export-xdpi="96"
   inkscape:export-ydpi="96"
   inkscape:version="0.92.2 (unknown)"
   sodipodi:docname="alarm.svg">
  <defs
     id="defs2" />
  <sodipodi:namedview
     id="base"
     pagecolor="#ffffff"
     bordercolor="#666666"
     borderopacity="1.0"
     inkscape:pageopacity="0.0"
     inkscape:pageshadow="2"
     inkscape:zoom="2.6614704"
     inkscape:cx="10.491759"
     inkscape:cy="91.844183"
     inkscape:document-units="mm"
     inkscape:current-layer="layer1"
     showgrid="false"
     units="px"
     width="128px"
     showguides="false"
     inkscape:guide-bbox="true"
     inkscape:window-width="1308"
     inkscape:window-height="739"
     inkscape:window-x="58"
     inkscape:window-y="0"
     inkscape:window-maximized="1">
    <sodipodi:guide
       position="-14.646578,17.859375"
       orientation="0,1"
       id="guide4508"
       inkscape:locked="false" />
    <inkscape:grid
       type="xygrid"
       id="grid4510"
       empspacing="8"
       spacingx="0.52916667"
       spacingy="0.52916667" />
    <inkscape:grid
       type="xygrid"
       id="grid4512"
       color="#ff3f3f"
       opacity="0.1254902"
       empcolor="#ff3f3f"
       empopacity="0.25098039"
       empspacing="1"
       spacingx="16.933333"
       spacingy="16.933333" />
  </sodipodi:namedview>
  <metadata
     id="metadata5">
    <rdf:RDF>
      <cc:Work
         rdf:about="">
        <dc:format>image/svg+xml</dc:format>
        <dc:type
           rdf:resource="http://purl.org/dc/dcmitype/StillImage" />
        <dc:title />
      </cc:Work>
    </rdf:RDF>
  </metadata>
  <g
     inkscape:label="Layer 1"
     inkscape:groupmode="layer"
     id="layer1"
     transform="translate(0,-263.13333)">
    <path
       style="fill:#d3dae3;fill-opacity:1;stroke:none;stroke-width:0.9911505"
       d="M 64 4 A 60 60 0 0 0 4 64 A 60 60 0 0 0 64 124 A 60 60 0 0 0 124 64 A 60 60 0 0 0 64 4 z M 64 24 A 39.999999 39.999999 0 0 1 104 64 A 39.999999 39.999999 0 0 1 64 104 A 39.999999 39.999999 0 0 1 24 64 A 39.999999 39.999999 0 0 1 64 24 z "
       transform="matrix(0.26458333,0,0,0.26458333,0,263.13333)"
       id="path10" />
  </g>
</svg>
